<svg xmlns="http://www.w3.org/2000/svg" width="100" height="100" viewBox="0 0 100 100">
  <defs>
    <linearGradient id="accent-gradient" x1="0%" y1="0%" x2="100%" y2="100%">
      <stop offset="0%" stop-color="#ff6b00" />
      <stop offset="100%" stop-color="#e4572e" />
    </linearGradient>
  </defs>
  
  <!-- Minimalist infinity symbol -->
  <path d="M30,50 C30,38 38,30 50,30 C62,30 70,38 70,50 C70,62 62,70 50,70 C38,70 30,62 30,50 Z" 
        fill="none" 
        stroke="url(#accent-gradient)" 
        stroke-width="5" 
        stroke-linecap="round" />
  
  <path d="M50,50 C50,38 58,30 70,30 C82,30 90,38 90,50 C90,62 82,70 70,70 C58,70 50,62 50,50 Z" 
        fill="none" 
        stroke="url(#accent-gradient)" 
        stroke-width="5" 
        stroke-linecap="round" />
  
  <!-- Small dot in the middle for balance -->
  <circle cx="50" cy="50" r="3" fill="url(#accent-gradient)" />
</svg> 